<?xml version="1.0" encoding="UTF-8"?>
<svg width="128" height="128" viewBox="0 0 128 128" fill="none" xmlns="http://www.w3.org/2000/svg">
  <defs>
    <linearGradient id="grad1" x1="0%" y1="0%" x2="100%" y2="100%">
      <stop offset="0%" style="stop-color:#667eea;stop-opacity:1" />
      <stop offset="100%" style="stop-color:#764ba2;stop-opacity:1" />
    </linearGradient>
  </defs>
  
  <!-- Background Circle -->
  <circle cx="64" cy="64" r="60" fill="url(#grad1)"/>
  
  <!-- AI Brain/Network Icon -->
  <g fill="white">
    <!-- Main nodes -->
    <circle cx="45" cy="45" r="6"/>
    <circle cx="83" cy="45" r="6"/>
    <circle cx="64" cy="64" r="8"/>
    <circle cx="45" cy="83" r="6"/>
    <circle cx="83" cy="83" r="6"/>
    
    <!-- Connection lines -->
    <line x1="45" y1="45" x2="64" y2="64" stroke="white" stroke-width="2"/>
    <line x1="83" y1="45" x2="64" y2="64" stroke="white" stroke-width="2"/>
    <line x1="45" y1="83" x2="64" y2="64" stroke="white" stroke-width="2"/>
    <line x1="83" y1="83" x2="64" y2="64" stroke="white" stroke-width="2"/>
    <line x1="45" y1="45" x2="83" y2="45" stroke="white" stroke-width="1.5" opacity="0.7"/>
    <line x1="45" y1="83" x2="83" y2="83" stroke="white" stroke-width="1.5" opacity="0.7"/>
    <line x1="45" y1="45" x2="45" y2="83" stroke="white" stroke-width="1.5" opacity="0.7"/>
    <line x1="83" y1="45" x2="83" y2="83" stroke="white" stroke-width="1.5" opacity="0.7"/>
  </g>
  
  <!-- Email envelope overlay -->
  <g fill="white" opacity="0.9">
    <path d="M32 96 L96 96 L96 112 L32 112 Z M32 96 L64 108 L96 96"/>
    <line x1="32" y1="96" x2="96" y2="96" stroke="white" stroke-width="2"/>
    <line x1="32" y1="96" x2="64" y2="108" stroke="white" stroke-width="2"/>
    <line x1="64" y1="108" x2="96" y2="96" stroke="white" stroke-width="2"/>
    <line x1="32" y1="96" x2="32" y2="112" stroke="white" stroke-width="2"/>
    <line x1="96" y1="96" x2="96" y2="112" stroke="white" stroke-width="2"/>
    <line x1="32" y1="112" x2="96" y2="112" stroke="white" stroke-width="2"/>
  </g>
</svg>